<svg id="Layer_1" data-name="Layer 1" xmlns="http://www.w3.org/2000/svg" viewBox="0 0 500 500"><defs><style>.cls-1{fill:#010101;}.cls-2{fill:#fff;}.cls-3{fill:#149ad6;}.cls-4{fill:#e2343a;}.cls-5{fill:#fcdd14;}.cls-6{fill:#8bc053;}</style></defs><path class="cls-1" d="M201.17,253.39a99.74,99.74,0,0,1-9,41.56H122.93V276.11h32.42a12.88,12.88,0,0,0,12.87-12.88V244.31a12.88,12.88,0,0,0-12.87-12.87H122.93V199a12.87,12.87,0,0,0-12.87-12.87H100.6V152.79A100.69,100.69,0,0,1,201.17,253.39Z"/><path class="cls-1" d="M285.33,253.39A112.93,112.93,0,0,0,293.19,295H206.81a112.93,112.93,0,0,0,7.86-41.56A114.25,114.25,0,0,0,139.19,146H360.81A114.25,114.25,0,0,0,285.33,253.39Z"/><path class="cls-1" d="M402.06,146v0c-.88,0-1.78,0-2.66,0Z"/><path class="cls-1" d="M399.4,152.79c.9,0,1.78,0,2.66,0V295H307.8a100.57,100.57,0,0,1,91.6-142.16Z"/><path class="cls-1" d="M500,253.39a100.12,100.12,0,0,1-1.45,17.06,97.41,97.41,0,0,1-4,15.53c-.41,1.27-.88,2.53-1.37,3.77q-1.67,4.31-3.72,8.38a93.63,93.63,0,0,1-4.73,8.42A100.57,100.57,0,0,1,307.8,295a100.57,100.57,0,0,1,91.6-142.16c.9,0,1.78,0,2.66,0a100.8,100.8,0,0,1,89.38,60,97.22,97.22,0,0,1,5.43,15.63,96.24,96.24,0,0,1,2.3,12A100.53,100.53,0,0,1,500,253.39Z"/><path class="cls-2" d="M399.4,146c.88,0,1.78,0,2.66,0v0Z"/><path class="cls-3" d="M377.64,253.77a28.09,28.09,0,1,1-28.09-28.08A28.09,28.09,0,0,1,377.64,253.77Z"/><path class="cls-4" d="M477.34,253.77a28.09,28.09,0,1,1-28.09-28.08A28.09,28.09,0,0,1,477.34,253.77Z"/><path class="cls-5" d="M430.15,205.8a28.09,28.09,0,1,1-28.08-28.09A28.08,28.08,0,0,1,430.15,205.8Z"/><path class="cls-6" d="M430.15,301a28.09,28.09,0,1,1-28.08-28.09A28.08,28.08,0,0,1,430.15,301Z"/><path class="cls-1" d="M100.6,152.79a100.75,100.75,0,0,0-92,60,97.22,97.22,0,0,0-5.43,15.63,96.24,96.24,0,0,0-2.3,12,101.1,101.1,0,0,0,.62,30,97.41,97.41,0,0,0,4,15.53c.41,1.27.88,2.53,1.37,3.77q1.67,4.31,3.72,8.38a91.24,91.24,0,0,0,4.73,8.42A100.55,100.55,0,0,0,192.18,295,100.59,100.59,0,0,0,100.6,152.79Zm22.33,155.73a12.85,12.85,0,0,1-12.87,12.87H91.14a12.85,12.85,0,0,1-12.87-12.87V276.11H45.83a12.84,12.84,0,0,1-7.29-2.28h0a12.74,12.74,0,0,1-5.5-9.74,5,5,0,0,1,0-.86V244.31a12.62,12.62,0,0,1,3.25-8.53,12.8,12.8,0,0,1,9.62-4.34H78.27V199a12.87,12.87,0,0,1,12.87-12.87h18.92A12.87,12.87,0,0,1,122.93,199v32.41h32.42a12.88,12.88,0,0,1,12.87,12.87v18.92a12.88,12.88,0,0,1-12.87,12.88H122.93Z"/></svg>