<?xml version="1.0" encoding="utf-8"?>
<!-- Generator: Adobe Illustrator 24.3.0, SVG Export Plug-In . SVG Version: 6.00 Build 0)  -->
<svg version="1.1" id="Layer_1" xmlns="http://www.w3.org/2000/svg" xmlns:xlink="http://www.w3.org/1999/xlink" x="0px" y="0px"
	 viewBox="0 0 798.7 315.2" style="enable-background:new 0 0 798.7 315.2;" xml:space="preserve">
<style type="text/css">
	.st0{fill:#FCFCFC;}
	.st1{fill:#149AD6;}
	.st2{fill:#E2343A;}
	.st3{fill:#FCDD14;}
	.st4{fill:#8BC053;}
</style>
<g>
	<g>
		<path class="st0" d="M68.8,67.4L25.9,28.9V70H6.3V11.9c0-9.3,5.6-13.1,11.8-13.1c2.6,0,5.2,0.6,8.7,3.8l42.9,38.5V0h19.8v58
			c0,9.3-5.6,13.2-11.9,13.2C74.8,71.2,72.2,70.5,68.8,67.4z"/>
		<path class="st0" d="M183.5,52l-13.9,18h-67.4V0h81.1l-14,18.2H124v8.4h55.5L167,42.5h-43V52H183.5z"/>
		<path class="st0" d="M290.3,0l-22.1,20.2c-9.7,8.8-13,11.6-15.6,13.6c2.5,1.7,5.7,4.6,17,15.2L292,70h-30.6l-23.9-23.1L213,70
			h-26.9l22.8-21c10.7-9.8,13.7-12.3,16.3-14.3c-2.6-1.9-5.3-4.3-16.3-14.5L187.5,0h30l22.3,21.8L262.3,0H290.3z"/>
		<path class="st0" d="M386.7,0l-14,18.2h-25V70H326V18.2h-32.9l14-18.2H386.7z"/>
		<path class="st0" d="M451.3,52.1h-36.6V70h-21.6V34.2h60.3c6.7,0,10.6-3.2,10.6-8.1s-3.9-8-10.6-8h-60.3L407.4,0h43.9
			c21.7,0,34.3,10.7,34.3,26.3C485.7,41.8,473,52.1,451.3,52.1z"/>
		<path class="st0" d="M572.5,52l-14,18h-61.8V0h21.7v52H572.5z"/>
		<path class="st0" d="M609.4,70l13.1-18H640c4.2,0,9.1,0,12.5,0.2c-1.9-2.5-4.8-6.8-7.1-10.1l-12.6-18.5L599.9,70h-25.6l44.9-63.3
			c2.9-4.1,7.2-7.8,14-7.8c6.5,0,10.8,3.5,13.8,7.8L690.8,70H609.4z"/>
		<path class="st0" d="M798.7,0l-41.5,46.9V70h-21.8V46.8L692.7,0h27.8l16.7,19.5c2.2,2.5,8.1,8.9,9.5,11c1.4-2,3.8-5,8.8-11.1
			l16-19.4H798.7z"/>
	</g>
	<g>
		<path class="st0" d="M234.2,283.4c12.5,0,19.3,4.7,19.3,14.1c0,10.5-6.4,16.8-22.1,16.8h-47.9l10.2-13.2h38.9
			c3.8,0,5.5-1.1,5.5-3.8c0-2.6-1.7-3.7-5.5-3.7h-28c-13.2,0-19.3-5.9-19.3-14.8c0-9.7,6.5-16,22.1-16h44.7l-10.2,13.4h-35.7
			c-3.7,0-5.5,0.9-5.5,3.5s1.8,3.6,5.5,3.6h28L234.2,283.4L234.2,283.4z"/>
		<path class="st0" d="M324.5,262.9l-10.3,13.4h-18.4v38.1h-15.9v-38.1h-24.2l10.3-13.4H324.5z"/>
		<path class="st0" d="M396.2,291.9c0,15.5-10.7,23.3-32.1,23.3c-24.8,0-35.5-7.8-35.5-23.3v-29h15.8v29c0,7.6,3.2,10.1,19.6,10.1
			c12.2,0,16.1-2.8,16.1-10.1v-29h16v29H396.2z"/>
		<path class="st0" d="M439.7,314.3h-34.5v-32.1h16V301h18.5c8.8,0,15.2-4.9,15.2-12.3c0-7.2-6.6-12.5-15.2-12.5h-34.5l10.2-13.4
			h24.3c18,0,31,10.4,31,25.2C470.7,303,457.5,314.3,439.7,314.3z"/>
		<path class="st0" d="M494.9,314.3H479v-51.5h15.9V314.3z"/>
		<path class="st0" d="M540.8,262.1c-25.1,0-37.6,8.1-37.6,26.5s12.5,26.6,37.6,26.6c25,0,37.6-8.2,37.6-26.6
			C578.4,270.2,565.8,262,540.8,262.1z M540.8,301.8c-16,0-21.8-2.1-21.8-13.2s5.8-13.2,21.8-13.2s21.8,2.1,21.8,13.2
			C562.6,299.6,556.8,301.8,540.8,301.8z"/>
	</g>
</g>
<g>
	<path class="st0" d="M574.7,167c0,4.5-0.4,8.9-1.1,13.3c-0.7,4.1-1.7,8.2-3.1,12.1c0,0,0,0,0,0.1c-0.3,1-0.7,1.9-1.1,2.8
		c-0.9,2.2-1.8,4.4-2.9,6.5c0,0,0,0,0,0.1c-0.6,1.1-1.1,2.2-1.8,3.3c-0.2,0.4-0.4,0.7-0.6,1.1c-0.4,0.7-0.8,1.4-1.3,2.1
		c0,0,0,0,0,0.1c-0.5,0.9-1.1,1.7-1.7,2.6c-0.4,0.5-0.7,1-1.1,1.5c-0.2,0.2-0.3,0.4-0.5,0.6c-0.8,1.1-1.6,2.1-2.4,3.1
		c-0.2,0.2-0.3,0.4-0.5,0.6c-24.6,29.8-68.1,37.7-101.9,16.6c-13.6-8.5-23.7-20.5-29.9-34.1c-0.6-1.3-1.1-2.6-1.6-3.9
		c-0.3-0.7-0.5-1.4-0.8-2.1c-0.1-0.4-0.3-0.8-0.4-1.2c-0.1-0.3-0.2-0.7-0.3-1c-0.1-0.3-0.2-0.7-0.3-1c-0.1-0.4-0.3-0.8-0.4-1.3
		c-0.1-0.2-0.2-0.5-0.2-0.7c-0.2-0.6-0.3-1.1-0.5-1.7c0-0.2-0.1-0.3-0.1-0.4c-0.2-0.7-0.4-1.5-0.5-2.2c-0.2-0.8-0.3-1.6-0.5-2.4
		c-0.1-0.7-0.3-1.4-0.4-2.2c-0.1-0.7-0.2-1.4-0.3-2c-0.1-0.7-0.2-1.3-0.2-2c0-0.1,0-0.2,0-0.3c-0.1-0.5-0.1-1.1-0.1-1.6
		c0,0,0,0,0-0.1c0-0.4-0.1-0.8-0.1-1.2c0-0.3,0-0.6-0.1-0.9c0-0.9-0.1-1.7-0.1-2.6c0-0.5,0-1,0-1.5c0-10.3,2-20.4,5.8-29.7
		c0.4-0.8,0.7-1.7,1.1-2.5c1-2.2,2.1-4.5,3.4-6.6c0.4-0.7,0.8-1.3,1.1-2c0.7-1.2,1.5-2.3,2.2-3.5c0.5-0.8,1.1-1.5,1.6-2.3
		c0.3-0.4,0.5-0.7,0.8-1.1c0.6-0.7,1.1-1.5,1.7-2.2s1.2-1.4,1.8-2.1c0.3-0.3,0.6-0.7,0.9-1c0.6-0.7,1.3-1.4,1.9-2
		c0.3-0.3,0.7-0.7,1-1c6.4-6.2,13.9-11.5,22.5-15.4c3.3-1.5,6.7-2.8,10.2-3.8h0.1c0.5-0.2,1-0.3,1.5-0.4c0,0,0,0,0.1,0
		c0.5-0.1,1-0.3,1.5-0.4s1-0.2,1.5-0.4c0.4-0.1,0.7-0.2,1.1-0.2c0,0,0,0,0.1,0s0.1,0,0.2,0c0.2,0,0.4-0.1,0.6-0.1
		c0.1,0,0.3-0.1,0.4-0.1c0.2,0,0.4-0.1,0.5-0.1s0.1,0,0.2,0c0.3-0.1,0.5-0.1,0.8-0.1l0,0c0.2,0,0.5-0.1,0.7-0.1s0.5-0.1,0.7-0.1
		c0.1,0,0.3-0.1,0.4-0.1s0.3,0,0.4-0.1c0.1,0,0.1,0,0.2,0c0.2,0,0.5-0.1,0.7-0.1s0.4-0.1,0.7-0.1c0.5-0.1,1.1-0.1,1.6-0.2
		c0.1,0,0.2,0,0.3,0c0.4,0,0.9-0.1,1.3-0.1c0.7-0.1,1.4-0.1,2.2-0.1c0.7,0,1.4-0.1,2.1-0.1s1.3,0,2,0h2.2
		c30.3,0.8,57.3,19,69.6,46.8c1.7,3.9,3.2,8,4.2,12.2c0.3,1.1,0.6,2.3,0.8,3.4c0.1,0.4,0.2,0.9,0.3,1.3c0.1,0.4,0.1,0.8,0.2,1.2
		c0.1,0.2,0.1,0.5,0.1,0.7c0,0.1,0.1,0.3,0.1,0.4l0,0c0.1,0.8,0.2,1.6,0.3,2.4c0,0.2,0,0.3,0.1,0.5
		C574.5,160.6,574.7,163.8,574.7,167z"/>
	<path class="st0" d="M759.7,92.4c-13.3,10.6-28.7,18.1-45.2,22.1c-16.3,3.8-29.1,2.8-48.5,1.1c-36.9-3.2-41.5-10.3-70-9.4
		c-13.1,0.5-22.9,2.3-30.6,4.9c6.5,8.1,11.6,17.2,15,27c3.9,1.6,8.1,3.7,13.2,6.4c4.2,2.2,9.4,4.9,16,8.1c9.1,4.4,26,12.6,39.1,16.7
		c2.3,0.7,4.8,1.4,7.2,1.9c11.3,1.4,22.8,0.7,33.8-2.1c22.6-5.7,37.1-18.6,45.2-25.9c8.1-7.3,16.7-15.1,21.5-28.7
		C758.9,107.4,760,99.9,759.7,92.4z M694.7,143.2c-4.9,2.3-10.1,4.1-15.4,5.1c-5.4,1-11,1.3-16.5,0.8c-2.8-0.3-5.6-0.8-8.3-1.5
		s-5.2-1.6-7.7-2.4c-10-3.6-19.5-7.5-29.1-11.5s-19.2-8.1-28.6-12.8c10.4,1.5,20.7,3.7,30.8,6.6c10.1,2.8,20,6.3,29.7,9.8
		c4.6,1.8,9.4,3.1,14.2,3.9c4.9,0.7,9.8,0.9,14.7,0.5c9.9-0.7,19.8-3.5,29.8-7C704,138.1,699.5,140.9,694.7,143.2z"/>
	<path class="st0" d="M705,183.1c-6.2,6.8-13.4,12.6-21.3,17.2c-5.3,3.1-18.3,10.6-35.8,12.4c-9.1-0.8-17.7-2.3-25.6-4.6
		c-8-2.3-15.4-5.5-22.3-9.4c-6-3.5-11.7-7.3-17.3-11.4c1.4-6,2.2-12.2,2.3-18.4c1.4,1.3,2.9,2.6,4.4,3.8
		c10.4,8.4,22.5,14.6,35.4,18.1c6.5,1.8,13.1,2.7,19.8,2.7c-5.9-3.3-11.7-6-17.5-8.9s-11.4-5.6-17.1-8.5c-5.7-2.9-11.3-5.9-16.9-8.9
		c-2.7-1.4-5.4-2.9-8.1-4.3c-0.1-1.5-0.2-2.9-0.3-4.4c-0.2-2-0.4-4-0.8-6c5,2.5,11.3,6,20.5,10.4c9.7,4.7,26.8,13,40.8,17.3
		c0.3,0.1,0.6,0.2,1,0.3c2.2,0.7,4.7,1.4,7.3,1.9C666.2,185.3,683.2,186.8,705,183.1z"/>
	<path class="st0" d="M652.2,224.6c-7.5,5.3-15.8,9.4-24.5,12.2c-7.1,2.3-27,8.4-49.4,1.9c-6.8-2-13.3-4.9-19.4-8.7
		c4.8-4.8,9.1-10.1,12.7-15.8c4.2,2.4,8.7,4.3,13.3,5.8c4.8,1.6,9.8,2.5,14.9,2.6c-3.8-3.1-7.9-6-12.1-8.6c-4-2.5-8-4.9-12-7.2
		c0.8-1.6,1.5-3.2,2.3-4.9c0-0.1,0.1-0.1,0.1-0.2c0.4-0.8,0.7-1.8,1.1-2.7c0-0.1,0.1-0.1,0.1-0.2c5,3.6,10.2,7.1,15.2,9.8
		c11.2,6.4,28.5,13.6,53.6,15.5C649.3,224.4,650.7,224.5,652.2,224.6z"/>
	<path class="st0" d="M163.8,106.2c-28.5-1-33.1,6.2-70,9.4c-19.4,1.7-32.3,2.7-48.5-1.1C28.8,110.6,13.3,103,0,92.4
		c-0.3,7.5,0.8,15,3.3,22.1c4.8,13.6,13.5,21.5,21.5,28.7s22.6,20.2,45.2,25.9c11.1,2.7,22.5,3.4,33.8,2.1c2.4-0.5,4.9-1.2,7.2-1.9
		c13.2-4,30-12.2,39.1-16.7c6.6-3.2,11.8-5.9,16-8.1c4.3-2.3,8.7-4.5,13.2-6.4c3.4-9.8,8.5-18.9,15-27
		C186.7,108.6,176.9,106.7,163.8,106.2z M142.1,133.8c-9.6,4-19.1,7.9-29.1,11.5c-2.5,0.9-5.1,1.7-7.7,2.4c-2.7,0.7-5.5,1.2-8.3,1.5
		c-5.5,0.5-11.1,0.2-16.5-0.8c-5.3-1.1-10.5-2.8-15.4-5.1c-4.8-2.3-9.3-5.1-13.5-8.5c9.9,3.5,19.8,6.3,29.7,7
		c4.9,0.4,9.8,0.2,14.6-0.5c4.8-0.8,9.6-2.1,14.2-3.9c9.7-3.5,19.6-7,29.7-9.8c10.1-2.9,20.4-5.1,30.8-6.6
		C161.3,125.7,151.7,129.8,142.1,133.8z M204.4,115.4c-5.2,6-9.5,12.7-12.8,20h0.2C195,128,199.3,121.3,204.4,115.4
		C204.5,115.4,204.4,115.4,204.4,115.4z"/>
	<path class="st0" d="M201.1,230.1c-6.1,3.7-12.6,6.6-19.4,8.6c-22.5,6.5-42.3,0.4-49.4-1.9c-8.8-2.8-17.1-6.9-24.6-12.2
		c1.4-0.1,2.8-0.2,4.2-0.3c0.1,0,0.3,0,0.4,0l0,0c24.9-1.9,41.9-9.1,53.2-15.5c0.8-0.4,1.6-0.9,2.4-1.4c0.8-0.5,1.5-1,2.4-1.5
		s1.7-1,2.5-1.6c2.6-1.7,5.2-3.5,7.7-5.3c0,0,0,0,0.1-0.1c0.4,1,0.8,1.9,1.2,2.9c0.8,1.8,1.6,3.4,2.4,5.1c-4.1,2.3-8,4.7-12,7.2
		c-4.2,2.6-8.3,5.5-12.1,8.6c5-0.2,10-1.1,14.8-2.7c4.6-1.5,9.1-3.4,13.3-5.8C191.8,220,196.1,225.3,201.1,230.1z"/>
	<path class="st0" d="M176.8,187.4c-5.5,4.1-11.3,7.9-17.2,11.4c-13.7,7.8-29.8,12.5-47.9,14c-17.4-1.8-30.5-9.3-35.8-12.4
		c-7.9-4.6-15.1-10.4-21.3-17.2c21.8,3.7,38.9,2.1,51.5-0.7c3-0.7,5.8-1.4,8.3-2.2c14-4.3,31.1-12.6,40.8-17.3
		c2.9-1.4,5.5-2.7,7.9-3.9c0.6-0.3,1.1-0.6,1.7-0.9c1.3-0.7,2.6-1.3,3.7-1.9c0.7-0.4,1.4-0.7,2.1-1.1c1.9-1,3.5-1.9,5.1-2.7l0,0l0,0
		c-0.4,2-0.6,4-0.8,5.9l0,0c-0.1,1.5-0.2,2.9-0.3,4.4c-2.7,1.4-5.4,2.9-8.1,4.3c-5.6,3-11.3,6-16.9,8.9c-5.6,2.9-11.3,5.6-17.1,8.5
		s-11.6,5.6-17.5,8.9c6.7,0,13.4-0.9,19.8-2.7c12.9-3.5,25-9.7,35.4-18.1c1.5-1.2,3-2.5,4.4-3.8
		C174.7,175.1,175.5,181.3,176.8,187.4z"/>
	<path class="st0" d="M407.4,167c0,11.1,2.1,22.1,6.1,32.4h-67.3c4.1-10.3,6.1-21.3,6.1-32.4c0-37.5-23.5-70.9-58.8-83.6h172.7
		C430.9,96.1,407.4,129.5,407.4,167z"/>
	<path class="st0" d="M302,98.8l-0.1-0.1c-0.7-0.4-1.5-0.8-2.2-1.2c-0.6-0.3-1.3-0.7-2-1s-1.3-0.6-2-0.9c-1.2-0.5-2.3-1-3.5-1.5
		c-0.6-0.2-1.2-0.5-1.8-0.7c-0.6-0.2-1.2-0.4-1.8-0.6c-0.5-0.2-0.9-0.3-1.4-0.5c-0.2-0.1-0.4-0.1-0.6-0.2c-0.5-0.2-1-0.3-1.6-0.5
		c-0.1,0-0.1,0-0.2,0c-0.6-0.2-1.2-0.3-1.8-0.5h-0.1c-0.5-0.1-0.9-0.2-1.4-0.4c-0.3-0.1-0.6-0.1-1-0.2s-0.9-0.2-1.3-0.3l0,0
		c-0.5-0.1-1.1-0.2-1.6-0.3c-0.3-0.1-0.5-0.1-0.8-0.1c-0.5-0.1-0.9-0.2-1.4-0.2c-0.6-0.1-1.3-0.2-1.9-0.3c-0.7-0.1-1.3-0.2-2-0.2
		l0,0c-0.7-0.1-1.3-0.1-2-0.2s-1.3-0.1-2-0.1c-1.3-0.1-2.7-0.1-4-0.1c-23,0-44.4,10.1-59,26.9c-5.1,5.9-9.4,12.6-12.7,20
		c-1.7,3.9-3.2,8-4.2,12.2c-0.8,3.1-1.4,6.2-1.8,9.4c-1,7.8-0.8,15.6,0.5,23.4c0.7,4,1.7,8,3,11.9c0,0,0,0,0,0.1c0,0,0,0.1,0.1,0.1
		c0.3,1,0.7,1.9,1,2.8c0,0,0,0.1,0.1,0.1c0.3,0.8,0.7,1.6,1,2.5c0.2,0.4,0.4,0.8,0.5,1.2c0.2,0.4,0.4,0.8,0.5,1.2
		c0.2,0.5,0.5,1,0.8,1.5l0,0c0.2,0.5,0.5,1,0.8,1.4c0.3,0.6,0.6,1.1,0.9,1.7c0.6,1.1,1.2,2.2,1.9,3.3l0.1,0.1l0,0l0,0
		c22.9,36.7,71.2,48,107.9,25.1c13.1-8.2,23.5-20,29.9-34.1C351.9,162.2,337.1,118.5,302,98.8z M316.1,174.6c0,0.2,0,0.3,0,0.5
		c-0.2,5.3-4.6,9.6-10,9.6h-25.3V210h0.1c0,5.5-4.5,10-10,10h-14.8c-5.5,0-10-4.5-10-10v-25.3h-25.3c-2,0-4-0.6-5.7-1.8l-0.5-0.3
		c-0.1-0.1-0.3-0.2-0.4-0.3c-0.1-0.1-0.2-0.2-0.4-0.3l-0.1-0.1c-0.7-0.7-1.2-1.4-1.7-2.2c-0.7-1.3-1.2-2.8-1.3-4.3v-15.5
		c0-0.8,0.1-1.5,0.3-2.3v-0.1c0.4-1.5,1.1-2.9,2.1-4.1c0,0,0,0,0-0.1v-0.1c1.9-2.2,4.6-3.4,7.5-3.4h25.3v-25.2c0-5.5,4.5-10,10-10
		h14.7c0.2,0,0.3,0,0.5,0c5.3,0.2,9.6,4.6,9.6,10v25.2h25.2c5.4,0,9.8,4.3,10,9.6c0,0.1,0,0.3,0,0.4v14.8H316.1z"/>
</g>
<path class="st1" d="M479.3,167.3c0,12.1-9.8,21.9-21.9,21.9s-21.9-9.8-21.9-21.9c0-12.1,9.8-21.9,21.9-21.9l0,0
	C469.5,145.4,479.3,155.2,479.3,167.3z"/>
<path class="st2" d="M557,167.3c0,12.1-9.8,21.9-21.9,21.9c-12.1,0-21.9-9.8-21.9-21.9s9.8-21.9,21.9-21.9
	C547.2,145.4,557,155.2,557,167.3L557,167.3z"/>
<path class="st3" d="M520.2,129.9c0,12.1-9.8,21.9-21.9,21.9s-21.9-9.8-21.9-21.9s9.8-21.9,21.9-21.9
	C510.4,108,520.2,117.8,520.2,129.9L520.2,129.9z"/>
<path class="st4" d="M520.2,204.1c0,12.1-9.8,21.9-21.9,21.9s-21.9-9.8-21.9-21.9c0-12.1,9.8-21.9,21.9-21.9l0,0
	C510.4,182.2,520.2,192,520.2,204.1z"/>
</svg>
